<?xml version="1.0" standalone="no"?>
<svg xmlns="http://www.w3.org/2000/svg" width="336.1443641003828" height="72.46436410038281" viewBox="0 0 336.1443641003828 72.46436410038281"><g fill="#36b10e" color="#36b10e" transform="translate(0 0) scale(1.3935455)"><svg width="52.0" height="52.0" x="0.0" y="0.0" viewBox="0 0 52 52"><path fill="currentColor" fill-rule="evenodd" d="M41.425 44.023v-3.275l3.389-3.677v3.371a24.18 24.18 0 0 1-3.389 3.581zM6.719 40.442v-3.359l3.389 3.677v3.263a24.175 24.175 0 0 1-3.389-3.581zm5.141.481l3.331-3.766v3.859l-3.33 3.82V40.923zM6.72 30.136l3.388 3.493v4.544l-3.389-3.676v-4.361zm3.388.975l-3.389-3.493v-4.13l3.389 3.68v3.943zm1.752 2.523l3.331-3.433v4.31l-3.33 3.766v-4.643zm3.331-10.146v4.196l-3.33 3.433V27.11l3.33-3.622zm6.369 4.514l3.33 3.614v4.141l-3.33-3.797v-3.958zm3.33-6.036l-3.33-3.433v-4.101l3.33 3.622v3.912zm5.083-3.383l-3.33 3.434v-4.021l3.33-3.623v4.21zm-3.33 13.234l.002.003 3.328-3.764V31.9l-3.33 3.798v-3.882zm-1.753-2.788l-3.33-3.613V21.05l3.33 3.433v4.545zm1.752-4.495l3.33-3.433v4.308l-3.33 3.768v-4.643zm14.783 9.086l3.389-3.493v4.358l-3.389 3.677V33.62zm-1.753-2.554l-3.33-3.433v-4.145l3.33 3.622v3.956zm0 7.234l-3.33-3.768v-4.381l3.33 3.432V38.3zm5.142-14.812v4.121l-3.389 3.493V27.17l3.389-3.681zm-5.142 21.348l-3.33-3.82v-3.838l3.329 3.767.001-.001v3.892zM25.766 1.753c13.263 0 24.014 10.809 24.014 24.072a23.9 23.9 0 0 1-3.213 11.995V19.047l-5.987 6.444-5.991-6.502v22.728l3.933 4.45a23.876 23.876 0 0 1-11.88 3.65V38.384l5.083-5.783V9.932l-5.96 6.47-5.958-6.47v22.67l5.083 5.85v11.364a23.878 23.878 0 0 1-11.88-3.649l3.934-4.45V18.989l-5.99 6.502-5.987-6.444V37.82a23.895 23.895 0 0 1-3.214-11.995c0-13.263 10.75-24.072 24.013-24.072zm0-1.753C11.568 0 0 11.627 0 25.825 0 40.023 11.568 51.59 25.766 51.59c14.198 0 25.767-11.627 25.767-25.825C51.533 11.57 39.964 0 25.766 0z"></path></svg></g><path fill="#212121" fill-rule="nonzero" d="M34.24 25.76Q34.44 26.44 34.44 27.52L34.44 27.52Q32.60 27.40 29.64 27.40L29.64 27.40Q26.80 27.40 24.76 27.52L24.76 27.52Q24.76 26.56 25.00 25.80L25.00 25.80Q26.52 25.64 27.04 25.12Q27.56 24.60 27.56 23.20L27.56 23.20Q27.56 22.40 27.44 21.20L27.44 21.20L26.00 7.48L17.72 27.48Q17.04 27.76 16.08 27.76L16.08 27.76L6.76 7.52L5.48 20.36Q5.36 21.56 5.36 22.44L5.36 22.44Q5.36 24.28 5.98 24.98Q6.60 25.68 8.08 25.80L8.08 25.80Q8.28 26.48 8.28 27.52L8.28 27.52Q6.36 27.40 4 27.40L4 27.40Q1.64 27.40 0 27.52L0 27.52Q0 26.48 0.20 25.80L0.20 25.80Q1.32 25.68 1.92 25.24Q2.52 24.80 2.86 23.62Q3.20 22.44 3.44 20L3.44 20L4.72 5.76Q4.76 5.40 4.76 4.80L4.76 4.80Q4.76 3.24 4.12 2.60Q3.48 1.96 2.04 1.96L2.04 1.96Q1.84 1.32 1.84 0.24L1.84 0.24Q3.04 0.36 4.88 0.36L4.88 0.36Q6.36 0.36 7.92 0.24L7.92 0.24L17.92 22.36L26.64 0.24Q28.00 0.36 29.76 0.36L29.76 0.36Q31.20 0.36 32.80 0.24L32.80 0.24Q32.80 1.20 32.60 1.96L32.60 1.96Q31.24 1.96 30.54 2.64Q29.84 3.32 29.84 5L29.84 5Q29.84 5.64 29.88 6L29.88 6L31.32 20.68Q31.52 22.68 31.84 23.74Q32.16 24.80 32.72 25.24Q33.28 25.68 34.24 25.76L34.24 25.76ZM50.44 27.76Q46.56 27.76 43.56 25.94Q40.56 24.12 38.90 20.94Q37.24 17.76 37.24 13.80L37.24 13.80Q37.24 9.80 38.98 6.66Q40.72 3.52 43.74 1.76Q46.76 0 50.44 0L50.44 0Q54.24 0 57.26 1.74Q60.28 3.48 61.98 6.62Q63.68 9.76 63.68 13.80L63.68 13.80Q63.68 17.72 61.98 20.90Q60.28 24.08 57.26 25.92Q54.24 27.76 50.44 27.76L50.44 27.76ZM51.24 25.80Q53.76 25.80 55.66 24.36Q57.56 22.92 58.56 20.42Q59.56 17.92 59.56 14.84L59.56 14.84Q59.56 11.28 58.26 8.32Q56.96 5.36 54.68 3.64Q52.40 1.92 49.60 1.92L49.60 1.92Q47.24 1.92 45.36 3.28Q43.48 4.64 42.42 7.08Q41.36 9.52 41.36 12.72L41.36 12.72Q41.36 16.16 42.54 19.16Q43.72 22.16 45.96 23.98Q48.20 25.80 51.24 25.80L51.24 25.80ZM86.00 21.80Q86.92 23.36 87.56 24.12Q88.20 24.88 89.06 25.24Q89.92 25.60 91.40 25.68L91.40 25.68Q91.40 26.84 91.24 27.40L91.24 27.40Q87.16 27.40 84.96 27.76L84.96 27.76Q83.44 25.32 82.28 23.04L82.28 23.04L81.80 22.16Q80.56 19.92 79.54 18.42Q78.52 16.92 76.84 15.12L76.84 15.12L75.60 15.16Q75.00 15.16 74.04 15.08L74.04 15.08L74.04 22.32Q74.04 24.32 74.58 25.02Q75.12 25.72 76.68 25.80L76.68 25.80Q76.88 26.40 76.88 27.52L76.88 27.52Q75.16 27.40 72.12 27.40L72.12 27.40Q69.12 27.40 67.32 27.52L67.32 27.52Q67.32 26.44 67.52 25.80L67.52 25.80Q69.16 25.72 69.72 25.02Q70.28 24.32 70.28 22.32L70.28 22.32L70.28 5.44Q70.28 3.44 69.70 2.70Q69.12 1.96 67.52 1.96L67.52 1.96Q67.32 1.32 67.32 0.28L67.32 0.28Q68.92 0.36 72.12 0.36L72.12 0.36Q74.32 0.36 75.44 0.32L75.44 0.32L78.80 0.28Q83.12 0.28 85.32 2.14Q87.52 4 87.52 7L87.52 7Q87.52 9.64 85.74 11.56Q83.96 13.48 80.80 14.28L80.80 14.28Q82.20 15.76 83.16 17.18Q84.12 18.60 86.00 21.80L86.00 21.80ZM74.04 13.24Q75.00 13.36 75.80 13.36L75.80 13.36Q79.28 13.36 81.44 11.86Q83.60 10.36 83.60 7.40L83.60 7.40Q83.60 4.88 82.02 3.46Q80.44 2.04 77.00 2.04L77.00 2.04Q75.56 2.04 74.04 2.36L74.04 2.36L74.04 13.24ZM113.08 20.56Q114.24 20.92 114.84 21.52L114.84 21.52Q114.08 23.88 113.60 27.48L113.60 27.48Q110.48 27.40 105.04 27.40L105.04 27.40Q97.68 27.40 94.68 27.52L94.68 27.52Q94.68 26.36 94.88 25.80L94.88 25.80Q96.00 25.72 96.58 25.40Q97.16 25.08 97.40 24.28Q97.64 23.48 97.64 21.88L97.64 21.88L97.64 5.44Q97.64 3.44 97.06 2.74Q96.48 2.04 94.88 1.96L94.88 1.96Q94.68 1.40 94.68 0.24L94.68 0.24Q97.04 0.36 101.40 0.36L101.40 0.36Q108.68 0.36 112.64 0.24L112.64 0.24Q113.04 4.64 113.48 6.56L113.48 6.56Q112.88 7.04 111.68 7.04L111.68 7.04Q111.48 4.80 110.06 3.38Q108.64 1.96 105.12 1.96L105.12 1.96L101.40 1.96L101.40 12.92L103.92 12.92Q106.44 12.92 107.38 12.26Q108.32 11.60 108.36 9.68L108.36 9.68Q109.32 9.40 110.28 9.40L110.28 9.40Q110.20 10.76 110.20 13.76L110.20 13.76Q110.20 17.04 110.28 18.40L110.28 18.40Q109.20 18.40 108.44 18.20L108.44 18.20Q108.28 16.12 107.34 15.38Q106.40 14.64 103.92 14.64L103.92 14.64L101.40 14.64L101.40 21.88Q101.40 23.40 101.68 24.18Q101.96 24.96 102.74 25.28Q103.52 25.60 105.04 25.60L105.04 25.60L105.28 25.60Q108.04 25.60 109.52 25.04Q111.00 24.48 111.70 23.48Q112.40 22.48 113.08 20.56L113.08 20.56ZM129.32 25.60Q131.52 25.60 132.80 25.12Q134.08 24.64 134.84 23.60Q135.60 22.56 136.32 20.56L136.32 20.56Q137.48 20.92 138.08 21.52L138.08 21.52Q137.32 23.88 136.84 27.48L136.84 27.48Q133.72 27.40 129.08 27.40L129.08 27.40Q121.72 27.40 118.72 27.52L118.72 27.52Q118.72 26.36 118.92 25.80L118.92 25.80Q120.04 25.72 120.62 25.40Q121.20 25.08 121.46 24.26Q121.72 23.44 121.72 21.88L121.72 21.88L121.72 5.44Q121.72 3.44 121.14 2.74Q120.56 2.04 118.96 1.96L118.96 1.96Q118.76 1.40 118.76 0.24L118.76 0.24Q121.08 0.36 123.60 0.36L123.60 0.36Q126.04 0.36 128.44 0.24L128.44 0.24Q128.44 1.40 128.24 1.96L128.24 1.96Q127.12 2.04 126.54 2.34Q125.96 2.64 125.72 3.40Q125.48 4.16 125.48 5.56L125.48 5.56L125.48 21.88Q125.48 23.44 125.76 24.20Q126.04 24.96 126.80 25.28Q127.56 25.60 129.08 25.60L129.08 25.60L129.32 25.60ZM153.48 27.76Q149.60 27.76 146.60 25.94Q143.60 24.12 141.94 20.94Q140.28 17.76 140.28 13.80L140.28 13.80Q140.28 9.80 142.02 6.66Q143.76 3.52 146.78 1.76Q149.80 0 153.48 0L153.48 0Q157.28 0 160.30 1.74Q163.32 3.48 165.02 6.62Q166.72 9.76 166.72 13.80L166.72 13.80Q166.72 17.72 165.02 20.90Q163.32 24.08 160.30 25.92Q157.28 27.76 153.48 27.76L153.48 27.76ZM154.28 25.80Q156.80 25.80 158.70 24.36Q160.60 22.92 161.60 20.42Q162.60 17.92 162.60 14.84L162.60 14.84Q162.60 11.28 161.30 8.32Q160.00 5.36 157.72 3.64Q155.44 1.92 152.64 1.92L152.64 1.92Q150.28 1.92 148.40 3.28Q146.52 4.64 145.46 7.08Q144.40 9.52 144.40 12.72L144.40 12.72Q144.40 16.16 145.58 19.16Q146.76 22.16 149.00 23.98Q151.24 25.80 154.28 25.80L154.28 25.80ZM178.96 27.76Q176.64 27.76 174.80 27.14Q172.96 26.52 170.84 25.20L170.84 25.20Q171.20 22.96 171.20 19.52L171.20 19.52Q172.12 19.28 173.36 19.28L173.36 19.28Q173.52 22.48 174.98 24.16Q176.44 25.84 179.52 25.84L179.52 25.84Q182.12 25.84 183.38 24.70Q184.64 23.56 184.64 21.68L184.64 21.68Q184.64 20.12 183.84 19.04Q183.04 17.96 181.88 17.26Q180.72 16.56 178.64 15.60L178.64 15.60Q176.24 14.44 174.80 13.52Q173.36 12.60 172.34 11.06Q171.32 9.52 171.32 7.20L171.32 7.20Q171.32 3.84 173.48 1.92Q175.64 0 179.36 0L179.36 0Q181.32 0 183.12 0.50Q184.92 1 186.04 1.76L186.04 1.76Q186.04 5.32 186.28 7.04L186.28 7.04Q185.40 7.40 184.04 7.40L184.04 7.40Q183.48 4.12 182.36 2.94Q181.24 1.76 179.32 1.76L179.32 1.76Q177.20 1.76 176.00 2.80Q174.80 3.84 174.80 5.72L174.80 5.72Q174.80 7.28 175.62 8.40Q176.44 9.52 177.62 10.24Q178.80 10.96 180.88 12.00L180.88 12.00Q183.24 13.12 184.66 14.04Q186.08 14.96 187.08 16.44Q188.08 17.92 188.08 20.08L188.08 20.08Q188.08 22.16 187.10 23.90Q186.12 25.64 184.06 26.70Q182.00 27.76 178.96 27.76L178.96 27.76Z" transform="translate(87.465 0) scale(1.323)"></path><path fill="#212121" fill-rule="nonzero" d="M2.96 5.44Q2.96 3.44 2.38 2.74Q1.80 2.04 0.20 1.96L0.20 1.96Q0 1.40 0 0.24L0 0.24Q2.20 0.36 4.84 0.36L4.84 0.36Q7.28 0.36 9.68 0.24L9.68 0.24Q9.68 1.40 9.48 1.96L9.48 1.96Q7.88 2.04 7.30 2.74Q6.72 3.44 6.72 5.44L6.72 5.44L6.72 22.32Q6.72 24.32 7.30 25.02Q7.88 25.72 9.48 25.80L9.48 25.80Q9.68 26.36 9.68 27.52L9.68 27.52Q7.28 27.40 4.84 27.40L4.84 27.40Q2.04 27.40 0 27.52L0 27.52Q0 26.36 0.20 25.80L0.20 25.80Q1.80 25.72 2.38 25.02Q2.96 24.32 2.96 22.32L2.96 22.32L2.96 5.44ZM36.16 0.36Q38.32 0.36 39.96 0.24L39.96 0.24Q39.96 1.24 39.76 1.96L39.76 1.96Q38.84 1.96 38.34 2.48Q37.84 3 37.62 4.22Q37.40 5.44 37.40 7.64L37.40 7.64L37.40 27.40Q36.76 27.64 35.68 27.64L35.68 27.64L19.16 6.08L19.16 19.92Q19.16 22.24 19.40 23.48Q19.64 24.72 20.24 25.26Q20.84 25.80 21.92 25.80L21.92 25.80Q22.12 26.40 22.12 27.52L22.12 27.52Q20.32 27.40 18.16 27.40L18.16 27.40Q15.68 27.40 14.16 27.52L14.16 27.52Q14.16 26.40 14.36 25.80L14.36 25.80Q15.44 25.80 16.04 25.26Q16.64 24.72 16.88 23.48Q17.12 22.24 17.12 19.92L17.12 19.92L17.12 3.40L16.96 3.20Q16.40 2.52 15.90 2.28Q15.40 2.04 14.36 1.96L14.36 1.96Q14.16 1.24 14.16 0.24L14.16 0.24Q15.36 0.36 17.12 0.36L17.12 0.36Q18.72 0.36 19.80 0.24L19.80 0.24L35.36 20.88L35.36 7.64Q35.36 5.40 35.12 4.20Q34.88 3 34.28 2.48Q33.68 1.96 32.60 1.96L32.60 1.96Q32.40 0.80 32.40 0.24L32.40 0.24Q34.12 0.36 36.16 0.36L36.16 0.36ZM63.96 0.36Q66.32 0.36 68.04 0.24L68.04 0.24Q68.04 1.20 67.84 1.96L67.84 1.96Q66.68 2.24 65.98 3.32Q65.28 4.40 64.40 6.68L64.40 6.68Q60.44 16.84 56.04 27.48L56.04 27.48Q55.36 27.64 54.48 27.64L54.48 27.64Q49.84 15.12 46.20 6.56L46.20 6.56Q45.28 4.40 44.84 3.54Q44.40 2.68 43.98 2.36Q43.56 2.04 42.80 1.96L42.80 1.96Q42.60 1.16 42.60 0.24L42.60 0.24Q44.16 0.36 47.44 0.36L47.44 0.36Q50 0.36 52.28 0.24L52.28 0.24Q52.28 1.04 52.08 1.96L52.08 1.96Q50.72 2.04 50.14 2.34Q49.56 2.64 49.56 3.40L49.56 3.40Q49.56 4.28 50.48 6.36L50.48 6.36Q53.20 12.80 56.44 21.72L56.44 21.72Q59.92 13.80 62.40 6.84L62.40 6.84Q62.96 5.24 62.96 4.20L62.96 4.20Q62.96 3.20 62.44 2.66Q61.92 2.12 60.76 1.96L60.76 1.96Q60.56 1.20 60.56 0.24L60.56 0.24Q62.32 0.36 63.96 0.36L63.96 0.36ZM89.68 20.56Q90.84 20.92 91.44 21.52L91.44 21.52Q90.68 23.88 90.20 27.48L90.20 27.48Q87.08 27.40 81.64 27.40L81.64 27.40Q74.28 27.40 71.28 27.52L71.28 27.52Q71.28 26.36 71.48 25.80L71.48 25.80Q72.60 25.72 73.18 25.40Q73.76 25.08 74 24.28Q74.24 23.48 74.24 21.88L74.24 21.88L74.24 5.44Q74.24 3.44 73.66 2.74Q73.08 2.04 71.48 1.96L71.48 1.96Q71.28 1.40 71.28 0.24L71.28 0.24Q73.64 0.36 78 0.36L78 0.36Q85.28 0.36 89.24 0.24L89.24 0.24Q89.64 4.64 90.08 6.56L90.08 6.56Q89.48 7.04 88.28 7.04L88.28 7.04Q88.08 4.80 86.66 3.38Q85.24 1.96 81.72 1.96L81.72 1.96L78 1.96L78 12.92L80.52 12.92Q83.04 12.92 83.98 12.26Q84.92 11.60 84.96 9.68L84.96 9.68Q85.92 9.40 86.88 9.40L86.88 9.40Q86.80 10.76 86.80 13.76L86.80 13.76Q86.80 17.04 86.88 18.40L86.88 18.40Q85.80 18.40 85.04 18.20L85.04 18.20Q84.88 16.12 83.94 15.38Q83 14.64 80.52 14.64L80.52 14.64L78 14.64L78 21.88Q78 23.40 78.28 24.18Q78.56 24.96 79.34 25.28Q80.12 25.60 81.64 25.60L81.64 25.60L81.88 25.60Q84.64 25.60 86.12 25.04Q87.60 24.48 88.30 23.48Q89 22.48 89.68 20.56L89.68 20.56ZM103.92 27.76Q101.60 27.76 99.76 27.14Q97.92 26.52 95.80 25.20L95.80 25.20Q96.16 22.96 96.16 19.52L96.16 19.52Q97.08 19.28 98.32 19.28L98.32 19.28Q98.48 22.48 99.94 24.16Q101.40 25.84 104.48 25.84L104.48 25.84Q107.08 25.84 108.34 24.70Q109.60 23.56 109.60 21.68L109.60 21.68Q109.60 20.12 108.80 19.04Q108.00 17.96 106.84 17.26Q105.68 16.56 103.60 15.60L103.60 15.60Q101.20 14.44 99.76 13.52Q98.32 12.60 97.30 11.06Q96.28 9.52 96.28 7.20L96.28 7.20Q96.28 3.84 98.44 1.92Q100.60 0 104.32 0L104.32 0Q106.28 0 108.08 0.50Q109.88 1 111.00 1.76L111.00 1.76Q111.00 5.32 111.24 7.04L111.24 7.04Q110.36 7.40 109.00 7.40L109.00 7.40Q108.44 4.12 107.32 2.94Q106.20 1.76 104.28 1.76L104.28 1.76Q102.16 1.76 100.96 2.80Q99.76 3.84 99.76 5.72L99.76 5.72Q99.76 7.28 100.58 8.40Q101.40 9.52 102.58 10.24Q103.76 10.96 105.84 12.00L105.84 12.00Q108.20 13.12 109.62 14.04Q111.04 14.96 112.04 16.44Q113.04 17.92 113.04 20.08L113.04 20.08Q113.04 22.16 112.06 23.90Q111.08 25.64 109.02 26.70Q106.96 27.76 103.92 27.76L103.92 27.76ZM135.68 0.24L135.64 1.68Q135.64 3.28 135.92 6.64L135.92 6.64Q135.08 7.04 133.92 7L133.92 7Q133.84 4.60 132.76 3.36Q131.68 2.12 129.40 2.12L129.40 2.12L127.28 2.12L127.28 22.32Q127.28 23.72 127.52 24.42Q127.76 25.12 128.42 25.42Q129.08 25.72 130.40 25.80L130.40 25.80Q130.60 26.36 130.60 27.52L130.60 27.52Q128.04 27.40 125.36 27.40L125.36 27.40Q122.36 27.40 120.12 27.52L120.12 27.52Q120.12 26.36 120.32 25.80L120.32 25.80Q121.64 25.72 122.32 25.42Q123.00 25.12 123.26 24.40Q123.52 23.68 123.52 22.32L123.52 22.32L123.52 2.12L121.48 2.12Q119.64 2.12 118.64 2.70Q117.64 3.28 117.22 4.26Q116.80 5.24 116.48 7L116.48 7Q115.16 7 114.56 6.64L114.56 6.64Q115.20 3.04 115.20 0.24L115.20 0.24Q117.44 0.36 125.40 0.36L125.40 0.36Q133.48 0.36 135.68 0.24L135.68 0.24ZM171 25.76Q171.20 26.44 171.20 27.52L171.20 27.52Q169.36 27.40 166.40 27.40L166.40 27.40Q163.56 27.40 161.52 27.52L161.52 27.52Q161.52 26.56 161.76 25.80L161.76 25.80Q163.28 25.64 163.80 25.12Q164.32 24.60 164.32 23.20L164.32 23.20Q164.32 22.40 164.20 21.20L164.20 21.20L162.76 7.48L154.48 27.48Q153.80 27.76 152.84 27.76L152.84 27.76L143.52 7.52L142.24 20.36Q142.12 21.56 142.12 22.44L142.12 22.44Q142.12 24.28 142.74 24.98Q143.36 25.68 144.84 25.80L144.84 25.80Q145.04 26.48 145.04 27.52L145.04 27.52Q143.12 27.40 140.76 27.40L140.76 27.40Q138.40 27.40 136.76 27.52L136.76 27.52Q136.76 26.48 136.96 25.80L136.96 25.80Q138.08 25.68 138.68 25.24Q139.28 24.80 139.62 23.62Q139.96 22.44 140.20 20L140.20 20L141.48 5.76Q141.52 5.40 141.52 4.80L141.52 4.80Q141.52 3.24 140.88 2.60Q140.24 1.96 138.80 1.96L138.80 1.96Q138.60 1.32 138.60 0.24L138.60 0.24Q139.80 0.36 141.64 0.36L141.64 0.36Q143.12 0.36 144.68 0.24L144.68 0.24L154.68 22.36L163.40 0.24Q164.76 0.36 166.52 0.36L166.52 0.36Q167.96 0.36 169.56 0.24L169.56 0.24Q169.56 1.20 169.36 1.96L169.36 1.96Q168 1.96 167.30 2.64Q166.60 3.32 166.60 5L166.60 5Q166.60 5.64 166.64 6L166.64 6L168.08 20.68Q168.28 22.68 168.60 23.74Q168.92 24.80 169.48 25.24Q170.04 25.68 171 25.76L171 25.76ZM193.24 20.56Q194.40 20.92 195.00 21.52L195.00 21.52Q194.24 23.88 193.76 27.48L193.76 27.48Q190.64 27.40 185.20 27.40L185.20 27.40Q177.84 27.40 174.84 27.52L174.84 27.52Q174.84 26.36 175.04 25.80L175.04 25.80Q176.16 25.72 176.74 25.40Q177.32 25.08 177.56 24.28Q177.80 23.48 177.80 21.88L177.80 21.88L177.80 5.44Q177.80 3.44 177.22 2.74Q176.64 2.04 175.04 1.96L175.04 1.96Q174.84 1.40 174.84 0.24L174.84 0.24Q177.20 0.36 181.56 0.36L181.56 0.36Q188.84 0.36 192.80 0.24L192.80 0.24Q193.20 4.64 193.64 6.56L193.64 6.56Q193.04 7.04 191.84 7.04L191.84 7.04Q191.64 4.80 190.22 3.38Q188.80 1.96 185.28 1.96L185.28 1.96L181.56 1.96L181.56 12.92L184.08 12.92Q186.60 12.92 187.54 12.26Q188.48 11.60 188.52 9.68L188.52 9.68Q189.48 9.40 190.44 9.40L190.44 9.40Q190.36 10.76 190.36 13.76L190.36 13.76Q190.36 17.04 190.44 18.40L190.44 18.40Q189.36 18.40 188.60 18.20L188.60 18.20Q188.44 16.12 187.50 15.38Q186.56 14.64 184.08 14.64L184.08 14.64L181.56 14.64L181.56 21.88Q181.56 23.40 181.84 24.18Q182.12 24.96 182.90 25.28Q183.68 25.60 185.20 25.60L185.20 25.60L185.44 25.60Q188.20 25.60 189.68 25.04Q191.16 24.48 191.86 23.48Q192.56 22.48 193.24 20.56L193.24 20.56ZM220.88 0.36Q223.04 0.36 224.68 0.24L224.68 0.24Q224.68 1.24 224.48 1.96L224.48 1.96Q223.56 1.96 223.06 2.48Q222.56 3 222.34 4.22Q222.12 5.44 222.12 7.64L222.12 7.64L222.12 27.40Q221.48 27.64 220.40 27.64L220.40 27.64L203.88 6.08L203.88 19.92Q203.88 22.24 204.12 23.48Q204.36 24.72 204.96 25.26Q205.56 25.80 206.64 25.80L206.64 25.80Q206.84 26.40 206.84 27.52L206.84 27.52Q205.04 27.40 202.88 27.40L202.88 27.40Q200.40 27.40 198.88 27.52L198.88 27.52Q198.88 26.40 199.08 25.80L199.08 25.80Q200.16 25.80 200.76 25.26Q201.36 24.72 201.60 23.48Q201.84 22.24 201.84 19.92L201.84 19.92L201.84 3.40L201.68 3.20Q201.12 2.52 200.62 2.28Q200.12 2.04 199.08 1.96L199.08 1.96Q198.88 1.24 198.88 0.24L198.88 0.24Q200.08 0.36 201.84 0.36L201.84 0.36Q203.44 0.36 204.52 0.24L204.52 0.24L220.08 20.88L220.08 7.64Q220.08 5.40 219.84 4.20Q219.60 3 219 2.48Q218.40 1.96 217.32 1.96L217.32 1.96Q217.12 0.80 217.12 0.24L217.12 0.24Q218.84 0.36 220.88 0.36L220.88 0.36ZM248.44 0.24L248.40 1.68Q248.40 3.28 248.68 6.64L248.68 6.64Q247.84 7.04 246.68 7L246.68 7Q246.60 4.60 245.52 3.36Q244.44 2.12 242.16 2.12L242.16 2.12L240.04 2.12L240.04 22.32Q240.04 23.72 240.28 24.42Q240.52 25.12 241.18 25.42Q241.84 25.72 243.16 25.80L243.16 25.80Q243.36 26.36 243.36 27.52L243.36 27.52Q240.80 27.40 238.12 27.40L238.12 27.40Q235.12 27.40 232.88 27.52L232.88 27.52Q232.88 26.36 233.08 25.80L233.08 25.80Q234.40 25.72 235.08 25.42Q235.76 25.12 236.02 24.40Q236.28 23.68 236.28 22.32L236.28 22.32L236.28 2.12L234.24 2.12Q232.40 2.12 231.40 2.70Q230.40 3.28 229.98 4.26Q229.56 5.24 229.24 7L229.24 7Q227.92 7 227.32 6.64L227.32 6.64Q227.96 3.04 227.96 0.24L227.96 0.24Q230.20 0.36 238.16 0.36L238.16 0.36Q246.24 0.36 248.44 0.24L248.44 0.24Z" transform="translate(87.465 44.705) scale(1)"></path></svg>